<svg width="60" height="60" viewBox="0 0 60 60" fill="none" xmlns="http://www.w3.org/2000/svg">
<path d="M30 15C36.525 15 42.225 19.65 43.5 26.075L44.25 29.825L48.05 30.1C51.95 30.375 55 33.625 55 37.5C55 41.625 51.625 45 47.5 45H15C9.475 45 5 40.525 5 35C5 29.875 8.825 25.6 13.9 25.075L16.575 24.8L17.825 22.425C18.972 20.1848 20.7164 18.3055 22.8651 16.9951C25.0139 15.6846 27.4832 14.9942 30 15V15ZM30 10C22.775 10 16.475 14.1 13.35 20.1C5.85 20.9 0 27.275 0 35C0 43.275 6.725 50 15 50H47.5C54.4 50 60 44.4 60 37.5C60 30.9 54.875 25.55 48.4 25.1C46.675 16.475 39.1 10 30 10Z" fill="black"/>
</svg>
