<svg width="60" height="60" viewBox="0 0 60 60" fill="none" xmlns="http://www.w3.org/2000/svg">
<path d="M25 30C22.25 30 20 32.25 20 35C20 37.75 22.25 40 25 40C27.75 40 30 37.75 30 35C30 32.25 27.75 30 25 30ZM15 20C12.25 20 10 22.25 10 25C10 27.75 12.25 30 15 30C17.75 30 20 27.75 20 25C20 22.25 17.75 20 15 20ZM15 40C12.25 40 10 42.25 10 45C10 47.75 12.25 50 15 50C17.75 50 20 47.75 20 45C20 42.25 17.75 40 15 40ZM45 20C47.75 20 50 17.75 50 15C50 12.25 47.75 10 45 10C42.25 10 40 12.25 40 15C40 17.75 42.25 20 45 20ZM35 40C32.25 40 30 42.25 30 45C30 47.75 32.25 50 35 50C37.75 50 40 47.75 40 45C40 42.25 37.75 40 35 40ZM45 30C42.25 30 40 32.25 40 35C40 37.75 42.25 40 45 40C47.75 40 50 37.75 50 35C50 32.25 47.75 30 45 30ZM35 20C32.25 20 30 22.25 30 25C30 27.75 32.25 30 35 30C37.75 30 40 27.75 40 25C40 22.25 37.75 20 35 20ZM25 10C22.25 10 20 12.25 20 15C20 17.75 22.25 20 25 20C27.75 20 30 17.75 30 15C30 12.25 27.75 10 25 10Z" fill="black"/>
</svg>
