<svg width="60" height="60" viewBox="0 0 60 60" fill="none" xmlns="http://www.w3.org/2000/svg">
<path d="M17.4 13.725L12.9 9.25L9.375 12.775L13.85 17.25L17.4 13.725ZM3 27.875H10.5V32.875H3V27.875ZM28 3H33V10.375H28V3ZM48.1 9.2375L51.62 12.755L47.145 17.23L43.6275 13.71L48.1 9.2375ZM43.6 47.025L48.075 51.525L51.6 48L47.1 43.525L43.6 47.025ZM50.5 27.875H58V32.875H50.5V27.875ZM30.5 15.375C22.225 15.375 15.5 22.1 15.5 30.375C15.5 38.65 22.225 45.375 30.5 45.375C38.775 45.375 45.5 38.65 45.5 30.375C45.5 22.1 38.775 15.375 30.5 15.375ZM30.5 40.375C24.975 40.375 20.5 35.9 20.5 30.375C20.5 24.85 24.975 20.375 30.5 20.375C36.025 20.375 40.5 24.85 40.5 30.375C40.5 35.9 36.025 40.375 30.5 40.375ZM28 50.375H33V57.75H28V50.375ZM9.375 47.975L12.9 51.5L17.375 47L13.85 43.475L9.375 47.975Z" fill="black"/>
</svg>
